<svg width="51" height="50" viewBox="0 0 51 50" fill="none" xmlns="http://www.w3.org/2000/svg">
<g clip-path="url(#clip0_636_3186)">
<path d="M1.79139 41.2288C0.945529 39.1668 0.839579 37.1624 1.06537 35.1214C1.40407 32.0467 2.47573 29.2255 4.2022 26.6913C5.91998 24.1692 7.75066 21.7259 9.55182 19.2616C9.71856 19.0342 10.0329 18.917 10.2778 18.7474C10.3873 19.0027 10.5349 19.2493 10.6009 19.5152C10.8059 20.3547 10.9795 21.2012 11.3287 22.0267C11.5284 20.8497 11.709 19.6691 11.9331 18.4973C12.3083 16.5367 13.0655 14.7894 14.6114 13.4357C15.7021 12.4808 16.7009 11.4191 17.7656 10.4327C17.9983 10.2176 18.3422 10.1231 18.6357 9.97272C18.7243 10.2631 18.8372 10.5481 18.8945 10.8455C19.1186 11.9945 19.3236 13.1454 19.5355 14.2962C19.6154 14.2892 19.697 14.2805 19.7769 14.2735C19.9332 13.3098 20.0913 12.3443 20.2476 11.3807C20.2702 11.2372 20.2927 11.0921 20.3153 10.9487C20.7113 8.55079 21.7726 6.65839 24.0548 5.54429C26.0036 4.59284 27.876 3.48748 29.7953 2.47482C30.0158 2.35939 30.3215 2.41011 30.589 2.38387C30.6047 2.63398 30.6568 2.88758 30.6307 3.13419C30.5143 4.22205 30.3754 5.30643 30.2451 6.39255C30.3198 6.41004 30.3928 6.42928 30.4674 6.44676C30.8965 5.57752 31.355 4.72052 31.751 3.83378C32.6611 1.79796 34.101 0.645379 36.3954 0.356797C39.6417 -0.0507169 42.848 -0.258846 46.0491 0.571922C47.1781 0.865752 47.2284 0.944456 46.914 2.0778C46.6118 3.17091 46.2453 4.24654 45.9292 5.33616C45.7694 5.88709 45.4429 6.05849 44.8749 6.15294C43.6782 6.35057 42.5058 6.69862 41.323 6.98545C41.3421 7.07115 41.3595 7.1586 41.3786 7.2443C42.3113 7.3265 43.2457 7.41745 44.1802 7.48566C44.7985 7.53114 45 7.75675 44.729 8.38464C43.1068 12.138 41.125 15.6884 38.7906 19.036C38.5405 19.3945 38.009 19.6586 37.5644 19.7548C35.1675 20.2655 32.7567 20.7097 30.0697 21.2309C31.3741 21.5895 32.484 21.9235 33.6077 22.1894C34.167 22.3223 34.7541 22.3433 35.3307 22.3853C35.8987 22.4272 36.1436 22.6861 35.7267 23.1478C33.6459 25.4547 31.5356 27.7337 29.4357 30.0231C27.8968 30.5146 26.3823 31.111 24.8139 31.4625C23.44 31.7721 22.0071 31.8071 20.3188 31.9959C21.2011 32.281 21.8646 32.5521 22.5507 32.7043C23.3115 32.8722 24.0983 32.9159 24.866 33.0488C25.0622 33.0838 25.288 33.2202 25.3922 33.3811C25.4391 33.4563 25.262 33.7449 25.123 33.8621C19.2784 38.8782 12.838 42.5983 4.97338 43.1667C4.46099 43.2034 4.19525 43.3678 4.03719 43.8488C3.5856 45.2253 3.10275 46.5912 2.57647 48.1268C3.81487 48.2405 4.86743 48.3682 5.92519 48.4294C11.1758 48.7285 16.4004 48.4959 21.5885 47.6074C21.9289 47.5497 22.2728 47.4692 22.5924 47.3415C23.638 46.92 23.8221 46.3691 23.2837 45.3599C21.941 42.8449 22.7921 40.3648 25.4635 39.3627C26.5282 38.9639 27.7075 38.7295 28.8434 38.6928C32.6333 38.5669 36.4284 38.6263 40.2166 38.4847C42.0855 38.4147 43.9492 38.0842 45.8076 37.8131C46.3391 37.7361 46.8706 37.5087 47.3483 37.2516C48.6805 36.5381 48.8733 35.1546 47.6991 34.1962C47.0929 33.7012 46.2836 33.4511 45.5489 33.1293C45.2345 32.9929 44.8228 33.0366 44.5554 32.8512C44.2931 32.6693 43.944 32.2076 44.0169 32.0379C44.1402 31.7528 44.6439 31.3646 44.8576 31.4328C46.0838 31.8263 47.4195 32.1324 48.4442 32.8582C50.7873 34.5162 50.5042 37.563 47.8572 38.6438C46.1498 39.3417 44.2392 39.7247 42.3947 39.8489C38.9921 40.0798 35.5687 39.9888 32.1557 40.0885C30.4535 40.1375 28.7462 40.2512 27.0562 40.4523C26.4257 40.5275 25.7778 40.8493 25.2377 41.2113C24.0601 41.9984 23.7492 43.2384 24.4908 44.391C26.021 46.7644 24.4752 48.6743 22.4656 48.9611C19.3461 49.4053 16.2111 49.8723 13.0708 49.9773C9.63692 50.0927 6.19094 49.8059 2.75016 49.6939C2.606 49.6887 2.46183 49.6642 2.31941 49.6415C1.11053 49.4631 0.870843 49.2444 1.20433 48.0341C1.7445 46.0753 2.27251 44.0849 3.10101 42.2415C7.80798 31.7651 14.7885 23.2003 24.4769 17.0001C26.1304 15.942 27.9264 15.106 29.6667 14.186C30.193 13.9079 30.992 13.7768 30.6585 12.9512C30.2938 12.0488 29.5834 12.549 29.0362 12.7973C23.7248 15.2057 19.0804 18.5935 14.8962 22.6424C9.62303 27.7477 5.46144 33.6627 2.29509 40.2984C2.16135 40.5765 2.0033 40.8423 1.79313 41.2323L1.79139 41.2288Z" fill="white"/>
</g>
<defs>
<clipPath id="clip0_636_3186">
<rect width="49.0741" height="50" fill="white" transform="translate(0.962952)"/>
</clipPath>
</defs>
</svg>
